<svg width="582" height="436" viewBox="0 0 582 436" fill="none" xmlns="http://www.w3.org/2000/svg">
<path d="M180.082 149.519C190.653 149.519 199.222 140.95 199.222 130.379C199.222 119.808 190.653 111.238 180.082 111.238C169.511 111.238 160.941 119.808 160.941 130.379C160.941 140.95 169.511 149.519 180.082 149.519Z" fill="#FFD200"/>
<path opacity="0.15" d="M180.082 160.303C196.609 160.303 210.006 146.905 210.006 130.379C210.006 113.852 196.609 100.455 180.082 100.455C163.556 100.455 150.158 113.852 150.158 130.379C150.158 146.905 163.556 160.303 180.082 160.303Z" fill="#FFD200"/>
<path opacity="0.39" d="M170.012 246.602V176.13H223.073V100.455H256.994V157.411H275.873V183.106H305.448V204.295H346.185V132.37H377.388V168.064H397.575V242.954L170.012 246.602Z" fill="#E6E6E6"/>
<path opacity="0.39" d="M337.363 108.622C337.363 108.622 329.093 83.349 351.446 80.2389C373.798 77.1288 379.393 80.2389 384.116 69.9348C388.84 59.6306 396.557 54.1806 404.332 65.4585C412.108 76.7364 394.813 86.0668 409.39 86.8516C423.967 87.6364 429.417 74.7889 440.302 88.2032C451.188 101.617 445.752 106.486 436.422 108.55C427.092 110.614 411.294 96.182 410.945 112.125C410.596 128.068 394.232 131.018 388.593 121.063C382.954 111.108 380.221 96.7633 373.623 103.187C367.025 109.611 350.254 108.622 350.254 108.622H337.363Z" fill="#E6E6E6"/>
<path d="M205.632 96.022V96.1818L184.631 133.896V243.753L205.632 243.971V243.811L226.632 243.593V133.736L205.632 96.022Z" fill="#012022"/>
<path d="M274.069 211.286H201.344V243.753H274.069V211.286Z" fill="#24285B"/>
<path d="M282.73 206.621L291.174 108.623H304.007L308.672 206.621H282.73Z" fill="#012022"/>
<path opacity="0.09" d="M282.73 206.621L291.174 108.623H304.007L308.672 206.621H282.73Z" fill="black"/>
<path d="M328.918 206.621L337.362 108.623H350.195L354.86 206.621H328.918Z" fill="#012022"/>
<path opacity="0.09" d="M328.918 206.621L337.362 108.623H350.195L354.86 206.621H328.918Z" fill="black"/>
<path d="M261.498 243.971V197.45L319.036 171.058V197.45L379.233 171.058V245.614L261.498 243.971Z" fill="#012022"/>
<path d="M150.188 243.971C150.188 244.741 150.188 245.526 150.188 246.311C150.188 281.472 164.155 315.192 189.017 340.054C213.88 364.917 247.6 378.884 282.761 378.884C317.921 378.884 351.642 364.917 376.504 340.054C401.366 315.192 415.334 281.472 415.334 246.311C415.334 245.526 415.334 244.741 415.334 243.971H150.188Z" fill="#073649"/>
<path d="M163.252 303.747C163.252 303.747 174.617 281.394 192.566 308.107C210.514 334.819 236.558 318.6 219.322 362.636C219.322 362.752 185.648 351.794 163.252 303.747Z" fill="#2B9943"/>
<path d="M221.779 243.971C221.779 243.971 211.228 264.623 235.149 265.335C259.071 266.047 269.288 273.067 260.132 291.364C250.976 309.662 265.757 314.618 279.839 317.408C293.922 320.199 279.491 354.352 302.352 348.015C325.212 341.679 302.715 296.64 315.432 285.74C328.148 274.84 323.178 243.971 323.178 243.971H221.779Z" fill="#2B9943"/>
<path d="M332.26 243.971C332.26 243.971 329.092 259.696 340.355 262.516C351.619 265.335 355.833 243.971 355.833 243.971H332.26Z" fill="#2B9943"/>
<path d="M346.692 324.441C346.692 324.441 334.368 330.066 340.356 338.524C346.344 346.983 351.983 348.698 360.412 340.98C368.841 333.263 363.231 320.227 346.692 324.441Z" fill="#2B9943"/>
<path d="M394.187 243.971C394.187 243.971 381.878 249.785 391.731 264.318C401.585 278.851 399.521 284.025 391.048 286.845C382.575 289.664 383.186 310.025 402.936 302.293C402.936 302.293 418.051 272.965 415.275 244.015L394.187 243.971Z" fill="#2B9943"/>
<path d="M367.78 213.03H337.057V243.753H367.78V213.03Z" fill="#24285B"/>
<path opacity="0.1" d="M253.359 223.247H239.654V243.754H253.359V223.247Z" fill="white"/>
<path d="M261.483 197.45H201.344V211.286H261.483V197.45Z" fill="#24285B"/>
<path opacity="0.44" d="M261.483 197.45H201.344V211.286H261.483V197.45Z" fill="white"/>
<path d="M217.491 219.642H210.297V226.836H217.491V219.642Z" fill="#FFD200"/>
<path d="M282.731 203.017H274.84V210.211H282.731V203.017Z" fill="white"/>
<path d="M297.454 203.017H289.562V210.211H297.454V203.017Z" fill="white"/>
<path d="M199.718 142.092H191.826V149.286H199.718V142.092Z" fill="white"/>
<path d="M212.942 142.092H205.051V149.286H212.942V142.092Z" fill="white"/>
<path d="M199.718 155.87H191.826V163.064H199.718V155.87Z" fill="white"/>
<path d="M212.942 155.87H205.051V163.064H212.942V155.87Z" fill="white"/>
<path opacity="0.44" d="M184.631 133.896H226.632L205.632 96.022L184.631 133.896Z" fill="white"/>
<path d="M288.517 224.511L290.856 220.02C291.178 219.399 291.664 218.878 292.261 218.514C292.858 218.151 293.543 217.957 294.243 217.956H314.589C315.359 217.959 316.111 218.193 316.746 218.629C317.381 219.064 317.87 219.68 318.15 220.398L319.734 224.685C320.104 225.644 320.757 226.469 321.605 227.05C322.454 227.631 323.458 227.942 324.487 227.94H327.001C327.945 227.94 328.851 228.316 329.519 228.983C330.186 229.651 330.561 230.557 330.561 231.501V235.265C330.561 236.21 330.186 237.115 329.519 237.783C328.851 238.451 327.945 238.826 327.001 238.826H273.867C273.408 238.826 272.953 238.735 272.529 238.559C272.105 238.383 271.719 238.125 271.395 237.799C271.071 237.474 270.815 237.088 270.64 236.663C270.466 236.238 270.377 235.783 270.379 235.323V233.55C270.378 232.673 270.673 231.822 271.217 231.133C271.76 230.445 272.52 229.96 273.373 229.757L285.392 226.952C286.058 226.795 286.683 226.496 287.222 226.074C287.761 225.653 288.203 225.119 288.517 224.511V224.511Z" fill="#FFD200"/>
<path d="M285.057 244.015C288.115 244.015 290.594 241.536 290.594 238.478C290.594 235.42 288.115 232.94 285.057 232.94C281.999 232.94 279.52 235.42 279.52 238.478C279.52 241.536 281.999 244.015 285.057 244.015Z" fill="#24285B"/>
<path d="M285.056 241.341C286.638 241.341 287.919 240.059 287.919 238.478C287.919 236.897 286.638 235.615 285.056 235.615C283.475 235.615 282.193 236.897 282.193 238.478C282.193 240.059 283.475 241.341 285.056 241.341Z" fill="white"/>
<path d="M318.309 244.015C321.367 244.015 323.846 241.536 323.846 238.478C323.846 235.42 321.367 232.94 318.309 232.94C315.251 232.94 312.771 235.42 312.771 238.478C312.771 241.536 315.251 244.015 318.309 244.015Z" fill="#24285B"/>
<path opacity="0.38" d="M292.904 221.532L290.666 226.72H302.918V222.258C302.918 222.027 302.872 221.799 302.784 221.585C302.695 221.372 302.566 221.178 302.403 221.015C302.239 220.852 302.045 220.722 301.832 220.634C301.619 220.545 301.39 220.5 301.159 220.5H294.605C294.251 220.484 293.9 220.574 293.598 220.757C293.295 220.941 293.053 221.211 292.904 221.532Z" fill="white"/>
<path opacity="0.38" d="M305.693 226.72H317.494L316.041 222.36C315.867 221.834 315.532 221.375 315.084 221.049C314.635 220.723 314.096 220.546 313.541 220.543H307.612C307.095 220.543 306.6 220.749 306.234 221.114C305.869 221.479 305.664 221.974 305.664 222.491L305.693 226.72Z" fill="white"/>
<path d="M301.42 230.994H297.787V232.549H301.42V230.994Z" fill="#24285B"/>
<path d="M273.401 235.745C274.501 235.745 275.392 234.853 275.392 233.754C275.392 232.654 274.501 231.763 273.401 231.763C272.302 231.763 271.41 232.654 271.41 233.754C271.41 234.853 272.302 235.745 273.401 235.745Z" fill="white"/>
<path d="M330.474 230.994H326.114C326.085 231.541 326.186 232.088 326.408 232.589C326.629 233.091 326.966 233.533 327.391 233.88C327.816 234.227 328.316 234.469 328.852 234.586C329.388 234.703 329.944 234.692 330.474 234.554V230.994Z" fill="white"/>
<path d="M318.252 241.341C319.833 241.341 321.115 240.059 321.115 238.478C321.115 236.897 319.833 235.615 318.252 235.615C316.671 235.615 315.389 236.897 315.389 238.478C315.389 240.059 316.671 241.341 318.252 241.341Z" fill="white"/>
<path d="M291.176 108.623C291.176 108.623 283.662 89.9621 301.422 86.0671C319.182 82.1722 327.466 77.8994 317.496 63.1335C307.526 48.3677 336.215 34.7354 341.883 52.6259C347.551 70.5165 351.838 63.1335 361.561 55.7361C371.284 48.3386 399.348 51.8557 385.875 73.1761C372.403 94.4965 353.321 72.4058 341.883 85.6166C330.445 98.8274 333.57 109.727 304.009 108.565L291.176 108.623Z" fill="#E6E6E6"/>
</svg>
